<svg width="25" height="25" viewBox="0 0 25 25" fill="none" xmlns="http://www.w3.org/2000/svg">
<path d="M0.204586 1.77482C-0.0681955 2.04743 -0.0681955 2.48969 0.204586 2.7623L22.2376 24.7954C22.5104 25.0682 22.9525 25.0682 23.2252 24.7954L24.7955 23.2252C25.0682 22.9525 25.0682 22.5103 24.7955 22.2376L2.76239 0.204457C2.48975 -0.0681525 2.04751 -0.0681525 1.77487 0.204457L0.204586 1.77482Z" fill="white"/>
<path d="M23.2252 0.204561C22.9526 -0.0681871 22.5103 -0.0681871 22.2377 0.204561L0.204589 22.2376C-0.0681963 22.5104 -0.0681963 22.9525 0.204589 23.2252L1.77474 24.7954C2.04753 25.0682 2.48964 25.0682 2.76242 24.7954L24.7955 2.7624C25.0682 2.48965 25.0682 2.04753 24.7955 1.77478L23.2252 0.204561Z" fill="white"/>
</svg>
