<svg width="34" height="25" viewBox="0 0 34 25" fill="none" xmlns="http://www.w3.org/2000/svg">
<path fill-rule="evenodd" clip-rule="evenodd" d="M13.4291 0.39421C14.9735 -0.635372 17.0421 0.471721 17.0421 2.32782V22.6722C17.0421 24.5283 14.9735 25.6354 13.4291 24.6058L5.728 19.4718H2.32392C1.04045 19.4718 0 18.4313 0 17.1479V7.85217C0 6.56867 1.04046 5.52825 2.32392 5.52825H5.728L13.4291 0.39421ZM13.9435 3.77524L7.05651 8.36661C6.80204 8.53625 6.50295 8.62681 6.19712 8.62681H3.09856V16.3732H6.19712C6.50295 16.3732 6.80204 16.4638 7.05651 16.6334L13.9435 21.2248V3.77524ZM23.2391 12.5C23.2391 10.6086 22.4873 8.89367 21.2623 7.63612C20.9637 7.32967 20.9125 6.84429 21.1842 6.5139L22.1684 5.31731C22.4402 4.98685 22.9307 4.93727 23.2393 5.2335C25.147 7.06452 26.3376 9.64376 26.3376 12.5C26.3376 15.3563 25.147 17.9355 23.2393 19.7665C22.9307 20.0627 22.4402 20.0132 22.1684 19.6828L21.1842 18.4862C20.9125 18.1557 20.9637 17.6703 21.2623 17.3639C22.4873 16.1064 23.2391 14.3915 23.2391 12.5ZM26.3489 2.46842C26.0715 2.79415 26.1127 3.2814 26.4206 3.5784C28.7595 5.83431 30.2111 8.99693 30.2111 12.4999C30.2111 16.0029 28.7595 19.1656 26.4206 21.4215C26.1127 21.7185 26.0715 22.2057 26.3489 22.5314L27.3533 23.7111C27.6306 24.0369 28.121 24.0775 28.4325 23.7843C31.4329 20.9606 33.3097 16.9487 33.3097 12.4999C33.3097 8.05118 31.4329 4.03939 28.4325 1.2156C28.121 0.922399 27.6306 0.963013 27.3533 1.28876L26.3489 2.46842Z" fill="white"/>
</svg>
