<svg width="22" height="25" viewBox="0 0 22 25" fill="none" xmlns="http://www.w3.org/2000/svg">
<path d="M0 0.657895C0 0.294546 0.294553 0 0.657895 0H5.92105C6.28441 0 6.57895 0.294553 6.57895 0.657895V24.3421C6.57895 24.7055 6.28441 25 5.92105 25H0.657895C0.294553 25 0 24.7055 0 24.3421V0.657895Z" fill="white"/>
<path d="M14.4741 0.657895C14.4741 0.294546 14.7687 0 15.132 0H20.3952C20.7585 0 21.0531 0.294553 21.0531 0.657895V24.3421C21.0531 24.7055 20.7585 25 20.3952 25H15.132C14.7687 25 14.4741 24.7055 14.4741 24.3421V0.657895Z" fill="white"/>
</svg>
