<svg width="25" height="25" viewBox="0 0 25 25" fill="none" xmlns="http://www.w3.org/2000/svg">
<path d="M24.3653 1.1227C23.9205 0.938565 23.5408 1.01427 23.2259 1.35067L21.1101 3.45047C19.9491 2.35451 18.6226 1.5055 17.1306 0.903277C15.6386 0.301111 14.0951 0 12.5 0C10.8073 0 9.19062 0.331097 7.64984 0.992892C6.10894 1.65474 4.7797 2.54434 3.66213 3.66196C2.54451 4.7797 1.65469 6.10876 0.992835 7.64955C0.33104 9.19045 0 10.8069 0 12.4998C0 14.1922 0.33104 15.8091 0.992892 17.3499C1.65492 18.8909 2.54451 20.2201 3.66219 21.3377C4.77976 22.455 6.10899 23.3447 7.64989 24.0067C9.19068 24.6686 10.8074 24.9997 12.5001 24.9997C14.3662 24.9997 16.1408 24.6064 17.8224 23.8196C19.5041 23.0332 20.9364 21.9236 22.1194 20.4912C22.2061 20.3827 22.2468 20.2606 22.2412 20.125C22.2361 19.9894 22.1842 19.8782 22.0867 19.7914L19.8572 17.5454C19.7374 17.4478 19.6022 17.3991 19.4502 17.3991C19.2767 17.4207 19.152 17.4861 19.0759 17.5946C18.2838 18.6256 17.3127 19.4229 16.1625 19.9875C15.0125 20.5516 13.7918 20.8335 12.5005 20.8335C11.3722 20.8335 10.2952 20.6138 9.26986 20.1742C8.24436 19.7349 7.35722 19.1409 6.60866 18.3921C5.86016 17.6434 5.26609 16.7565 4.82656 15.7309C4.38715 14.7055 4.16739 13.6289 4.16739 12.5003C4.16739 11.3718 4.38732 10.2946 4.82656 9.26947C5.26591 8.24419 5.85993 7.35705 6.60866 6.60849C7.35745 5.85976 8.24436 5.26569 9.26986 4.82616C10.295 4.38681 11.3722 4.16699 12.5005 4.16699C14.6815 4.16699 16.5751 4.91031 18.181 6.39688L15.9344 8.64262C15.5979 8.96818 15.5222 9.34261 15.7064 9.76571C15.8911 10.1998 16.2112 10.4167 16.6672 10.4167H23.9587C24.2408 10.4167 24.4849 10.3137 24.6911 10.1075C24.8971 9.90139 25.0001 9.65728 25.0001 9.37516V2.08344C25 1.62784 24.789 1.30774 24.3653 1.1227Z" fill="white"/>
</svg>
