<svg width="35" height="25" viewBox="0 0 35 25" fill="none" xmlns="http://www.w3.org/2000/svg">
<path fill-rule="evenodd" clip-rule="evenodd" d="M17.0421 2.32782C17.0421 0.471721 14.9735 -0.635372 13.4291 0.39421L5.728 5.52825H2.32392C1.04046 5.52825 0 6.56867 0 7.85217V17.1479C0 18.4313 1.04045 19.4718 2.32392 19.4718H5.728L13.4291 24.6058C14.9735 25.6354 17.0421 24.5283 17.0421 22.6722V2.32782ZM20.3675 7.94613L24.9214 12.5L20.3675 17.0539C20.065 17.3564 20.065 17.8469 20.3675 18.1494L21.463 19.2449C21.7655 19.5474 22.256 19.5474 22.5585 19.2449L27.1124 14.691L31.6663 19.2449C31.9688 19.5474 32.4593 19.5474 32.7618 19.2449L33.8573 18.1494C34.1598 17.8469 34.1598 17.3564 33.8573 17.0539L29.3034 12.5L33.8573 7.94613C34.1598 7.64364 34.1598 7.15313 33.8573 6.85064L32.7618 5.75514C32.4593 5.45264 31.9688 5.45264 31.6663 5.75514L27.1124 10.309L22.5585 5.75514C22.256 5.45264 21.7655 5.45264 21.463 5.75514L20.3675 6.85064C20.065 7.15313 20.065 7.64364 20.3675 7.94613Z" fill="white"/>
</svg>
